<mxfile host="65bd71144e">
    <diagram id="hafGD2FYq9tdRyy5QDzc" name="Página-1">
        <mxGraphModel dx="739" dy="635" grid="1" gridSize="10" guides="1" tooltips="1" connect="1" arrows="1" fold="1" page="1" pageScale="1" pageWidth="827" pageHeight="1169" background="#ffffff" math="0" shadow="0">
            <root>
                <mxCell id="0"/>
                <mxCell id="1" parent="0"/>
                <mxCell id="75" style="edgeStyle=none;html=1;exitX=1;exitY=0.5;exitDx=0;exitDy=0;entryX=0;entryY=0.5;entryDx=0;entryDy=0;strokeColor=#000000;" parent="1" source="13" target="74" edge="1">
                    <mxGeometry relative="1" as="geometry"/>
                </mxCell>
                <mxCell id="13" value="Tela Cadastro Produto" style="ellipse;whiteSpace=wrap;html=1;fillColor=#e6d0de;strokeColor=#000000;fontStyle=0;gradientColor=#d5739d;fontColor=#000000;" parent="1" vertex="1">
                    <mxGeometry x="15" y="111" width="120" height="80" as="geometry"/>
                </mxCell>
                <mxCell id="81" style="edgeStyle=none;html=1;exitX=1;exitY=0.5;exitDx=0;exitDy=0;entryX=0;entryY=0.5;entryDx=0;entryDy=0;strokeColor=#000000;" parent="1" source="26" target="79" edge="1">
                    <mxGeometry relative="1" as="geometry"/>
                </mxCell>
                <mxCell id="26" value="Consultar produto" style="shape=process;whiteSpace=wrap;html=1;backgroundOutline=1;fillColor=#d5e8d4;gradientColor=#97d077;strokeColor=#000000;fontColor=#000000;" parent="1" vertex="1">
                    <mxGeometry x="320" y="121" width="120" height="60" as="geometry"/>
                </mxCell>
                <mxCell id="55" style="edgeStyle=none;html=1;exitX=0.55;exitY=0.95;exitDx=0;exitDy=0;exitPerimeter=0;entryX=0.5;entryY=0;entryDx=0;entryDy=0;startArrow=classic;startFill=1;strokeColor=#000000;" parent="1" source="54" target="26" edge="1">
                    <mxGeometry relative="1" as="geometry"/>
                </mxCell>
                <mxCell id="54" value="API" style="ellipse;shape=cloud;whiteSpace=wrap;html=1;fillColor=#fad7ac;strokeColor=#000000;fontColor=#000000;" parent="1" vertex="1">
                    <mxGeometry x="310" y="10" width="120" height="80" as="geometry"/>
                </mxCell>
                <mxCell id="76" value="Sim" style="edgeStyle=none;html=1;exitX=1;exitY=0.5;exitDx=0;exitDy=0;entryX=0;entryY=0.5;entryDx=0;entryDy=0;strokeColor=#000000;labelBackgroundColor=none;fontColor=#000000;" parent="1" source="74" target="26" edge="1">
                    <mxGeometry relative="1" as="geometry"/>
                </mxCell>
                <mxCell id="77" value="Não" style="edgeStyle=none;html=1;exitX=0.5;exitY=1;exitDx=0;exitDy=0;entryX=0.5;entryY=0;entryDx=0;entryDy=0;strokeColor=#000000;labelBackgroundColor=none;fontColor=#000000;" parent="1" source="74" target="78" edge="1">
                    <mxGeometry relative="1" as="geometry">
                        <mxPoint x="224" y="230" as="targetPoint"/>
                    </mxGeometry>
                </mxCell>
                <mxCell id="74" value="Tem&lt;br&gt;parâmetro ID?" style="rhombus;whiteSpace=wrap;html=1;fillColor=#f5f5f5;gradientColor=#b3b3b3;strokeColor=#000000;fontColor=#000000;" parent="1" vertex="1">
                    <mxGeometry x="169" y="106.5" width="110" height="89" as="geometry"/>
                </mxCell>
                <mxCell id="91" style="edgeStyle=orthogonalEdgeStyle;html=1;exitX=1;exitY=1;exitDx=0;exitDy=0;entryX=0;entryY=0.5;entryDx=0;entryDy=0;strokeColor=#000000;" parent="1" source="78" target="89" edge="1">
                    <mxGeometry relative="1" as="geometry"/>
                </mxCell>
                <mxCell id="93" style="edgeStyle=orthogonalEdgeStyle;html=1;exitX=0.25;exitY=1;exitDx=0;exitDy=0;strokeColor=#000000;" parent="1" source="78" target="92" edge="1">
                    <mxGeometry relative="1" as="geometry"/>
                </mxCell>
                <mxCell id="78" value="Exibir formulário" style="whiteSpace=wrap;html=1;fillColor=#e6d0de;strokeColor=#000000;fontColor=#000000;fontStyle=0;gradientColor=#d5739d;" parent="1" vertex="1">
                    <mxGeometry x="164" y="230" width="120" height="60" as="geometry"/>
                </mxCell>
                <mxCell id="79" value="Consultou?" style="rhombus;whiteSpace=wrap;html=1;fillColor=#f5f5f5;gradientColor=#b3b3b3;strokeColor=#000000;fontColor=#000000;" parent="1" vertex="1">
                    <mxGeometry x="472" y="111" width="80" height="80" as="geometry"/>
                </mxCell>
                <mxCell id="85" style="edgeStyle=orthogonalEdgeStyle;html=1;exitX=1;exitY=0.5;exitDx=0;exitDy=0;exitPerimeter=0;entryX=0.5;entryY=0;entryDx=0;entryDy=0;strokeColor=#000000;" parent="1" source="82" target="86" edge="1">
                    <mxGeometry relative="1" as="geometry">
                        <mxPoint x="620" y="40" as="targetPoint"/>
                    </mxGeometry>
                </mxCell>
                <mxCell id="82" value="Mensagem erro ao consultar" style="shape=display;whiteSpace=wrap;html=1;fillColor=#f8cecc;gradientColor=#ea6b66;strokeColor=#000000;fontColor=#000000;" parent="1" vertex="1">
                    <mxGeometry x="452.5" y="10" width="135" height="60" as="geometry"/>
                </mxCell>
                <mxCell id="83" value="Não" style="edgeStyle=none;html=1;fontColor=#000000;entryX=0;entryY=0;entryDx=69.375;entryDy=60;entryPerimeter=0;exitX=0.5;exitY=0;exitDx=0;exitDy=0;strokeColor=#000000;labelBackgroundColor=none;" parent="1" source="79" target="82" edge="1">
                    <mxGeometry relative="1" as="geometry">
                        <mxPoint x="360.875" y="60" as="targetPoint"/>
                        <mxPoint x="359" y="111" as="sourcePoint"/>
                        <mxPoint as="offset"/>
                    </mxGeometry>
                </mxCell>
                <mxCell id="84" value="Sim" style="edgeStyle=orthogonalEdgeStyle;html=1;exitX=0.5;exitY=1;exitDx=0;exitDy=0;fontColor=#000000;entryX=0.5;entryY=0;entryDx=0;entryDy=0;strokeColor=#000000;labelBackgroundColor=none;" parent="1" source="79" target="87" edge="1">
                    <mxGeometry x="-0.2" relative="1" as="geometry">
                        <mxPoint x="520" y="260" as="targetPoint"/>
                        <mxPoint as="offset"/>
                        <mxPoint x="399" y="151" as="sourcePoint"/>
                    </mxGeometry>
                </mxCell>
                <mxCell id="86" value="Navegar p/ Tela&lt;br&gt;Cardápio" style="ellipse;whiteSpace=wrap;html=1;fillColor=#e6d0de;strokeColor=#000000;fontStyle=0;gradientColor=#d5739d;fontColor=#000000;" parent="1" vertex="1">
                    <mxGeometry x="587" y="80" width="120" height="80" as="geometry"/>
                </mxCell>
                <mxCell id="88" style="edgeStyle=orthogonalEdgeStyle;html=1;entryX=1;entryY=0.5;entryDx=0;entryDy=0;strokeColor=#000000;" parent="1" source="87" target="78" edge="1">
                    <mxGeometry relative="1" as="geometry"/>
                </mxCell>
                <mxCell id="87" value="Inserir dados do produtos no formulário" style="shape=process;whiteSpace=wrap;html=1;backgroundOutline=1;fillColor=#d5e8d4;gradientColor=#97d077;strokeColor=#000000;fontColor=#000000;" parent="1" vertex="1">
                    <mxGeometry x="452" y="238" width="120" height="60" as="geometry"/>
                </mxCell>
                <mxCell id="90" style="edgeStyle=orthogonalEdgeStyle;html=1;exitX=1;exitY=0.5;exitDx=0;exitDy=0;entryX=0.5;entryY=1;entryDx=0;entryDy=0;strokeColor=#000000;" parent="1" source="89" target="86" edge="1">
                    <mxGeometry relative="1" as="geometry"/>
                </mxCell>
                <mxCell id="89" value="Clicou em Voltar" style="shape=process;whiteSpace=wrap;html=1;backgroundOutline=1;fillColor=#d5e8d4;gradientColor=#97d077;strokeColor=#000000;fontColor=#000000;" parent="1" vertex="1">
                    <mxGeometry x="310" y="310" width="120" height="60" as="geometry"/>
                </mxCell>
                <mxCell id="95" style="html=1;exitX=0;exitY=0.5;exitDx=0;exitDy=0;entryX=0.8;entryY=0.8;entryDx=0;entryDy=0;entryPerimeter=0;startArrow=classic;startFill=1;strokeColor=#000000;" parent="1" source="92" target="96" edge="1">
                    <mxGeometry relative="1" as="geometry">
                        <mxPoint x="80" y="350" as="targetPoint"/>
                    </mxGeometry>
                </mxCell>
                <mxCell id="97" style="edgeStyle=none;html=1;exitX=0.25;exitY=1;exitDx=0;exitDy=0;entryX=0.5;entryY=0;entryDx=0;entryDy=0;startArrow=none;startFill=0;strokeColor=#000000;" parent="1" source="92" target="94" edge="1">
                    <mxGeometry relative="1" as="geometry"/>
                </mxCell>
                <mxCell id="92" value="Clicou em Salvar" style="shape=process;whiteSpace=wrap;html=1;backgroundOutline=1;fillColor=#d5e8d4;gradientColor=#97d077;strokeColor=#000000;fontColor=#000000;" parent="1" vertex="1">
                    <mxGeometry x="134" y="320" width="120" height="60" as="geometry"/>
                </mxCell>
                <mxCell id="98" value="" style="edgeStyle=orthogonalEdgeStyle;html=1;entryX=0.5;entryY=1;entryDx=0;entryDy=0;startArrow=none;startFill=0;exitX=1;exitY=0.5;exitDx=0;exitDy=0;exitPerimeter=0;strokeColor=#000000;" parent="1" source="99" target="86" edge="1">
                    <mxGeometry x="-0.9018" relative="1" as="geometry">
                        <mxPoint x="530" y="470" as="sourcePoint"/>
                        <mxPoint as="offset"/>
                    </mxGeometry>
                </mxCell>
                <mxCell id="100" value="Sim" style="edgeStyle=orthogonalEdgeStyle;html=1;exitX=1;exitY=0.5;exitDx=0;exitDy=0;entryX=0;entryY=0.5;entryDx=0;entryDy=0;entryPerimeter=0;startArrow=none;startFill=0;strokeColor=#000000;labelBackgroundColor=none;fontColor=#000000;" parent="1" source="94" target="99" edge="1">
                    <mxGeometry relative="1" as="geometry"/>
                </mxCell>
                <mxCell id="102" value="Não" style="edgeStyle=orthogonalEdgeStyle;html=1;exitX=0.5;exitY=1;exitDx=0;exitDy=0;entryX=0;entryY=0.5;entryDx=0;entryDy=0;entryPerimeter=0;startArrow=none;startFill=0;strokeColor=#000000;labelBackgroundColor=none;fontColor=#000000;" parent="1" source="94" target="101" edge="1">
                    <mxGeometry x="0.2105" relative="1" as="geometry">
                        <mxPoint as="offset"/>
                    </mxGeometry>
                </mxCell>
                <mxCell id="94" value="Alterou?" style="rhombus;whiteSpace=wrap;html=1;fillColor=#f5f5f5;gradientColor=#b3b3b3;strokeColor=#000000;fontColor=#000000;" parent="1" vertex="1">
                    <mxGeometry x="124" y="410" width="80" height="80" as="geometry"/>
                </mxCell>
                <mxCell id="96" value="API" style="ellipse;shape=cloud;whiteSpace=wrap;html=1;fillColor=#fad7ac;strokeColor=#000000;fontColor=#000000;" parent="1" vertex="1">
                    <mxGeometry y="260" width="120" height="80" as="geometry"/>
                </mxCell>
                <mxCell id="99" value="Mensagem sucesso ao alterar" style="shape=display;whiteSpace=wrap;html=1;fillColor=#f8cecc;gradientColor=#ea6b66;strokeColor=#000000;fontColor=#000000;" parent="1" vertex="1">
                    <mxGeometry x="337" y="420" width="135" height="60" as="geometry"/>
                </mxCell>
                <mxCell id="101" value="Mensagem erro ao alterar" style="shape=display;whiteSpace=wrap;html=1;fillColor=#f8cecc;gradientColor=#ea6b66;strokeColor=#000000;fontColor=#000000;" parent="1" vertex="1">
                    <mxGeometry x="220" y="480" width="135" height="60" as="geometry"/>
                </mxCell>
            </root>
        </mxGraphModel>
    </diagram>
</mxfile>